# xmcd
#
# Track frame offsets:
#	300
#	20014
#	36672
#	58092
#	75727
#	88035
#	100268
#	122326
#	139059
#	161792
#	178600
#	200208
#	216528
#
# Disc length: 3099 seconds
#
# Revision: 0
# Processed by: cddbd v1.5.2PL0 Copyright (c) Steve Scherf et al.
# Submitted via: audiograbber 1.83.01
#
DISCID=c50c170d
DTITLE=Carolyn Fe Blues Collective - Bad Taboo
DYEAR=2014
DGENRE=Blues
TTITLE0=All About Them
TTITLE1=Kitty Cat
TTITLE2=Bad Taboo
TTITLE3=Life's Just That Good
TTITLE4=Love Galore
TTITLE5=Goodbye
TTITLE6=Bad Thing
TTITLE7=Redemption
TTITLE8=Not Anymore
TTITLE9=Promised
TTITLE10=Watching You
TTITLE11=Whole Lotsa Trouble
TTITLE12=Not Worth The Show
EXTD=
EXTT0=
EXTT1=
EXTT2=
EXTT3=
EXTT4=
EXTT5=
EXTT6=
EXTT7=
EXTT8=
EXTT9=
EXTT10=
EXTT11=
EXTT12=
PLAYORDER=
